<svg xmlns="http://www.w3.org/2000/svg" xmlns:xlink="http://www.w3.org/1999/xlink" style="margin: auto; background: none; display: block; shape-rendering: auto;" width="200px" height="200px" viewBox="0 0 100 100" preserveAspectRatio="xMidYMid">
<g transform="rotate(0 50 50)">
  <rect x="49" y="-0.5" rx="1" ry="12.5" width="2" height="25" fill="#6b717e">
    <animate attributeName="opacity" values="1;0" keyTimes="0;1" dur="0.689655172413793s" begin="-0.6533575317604354s" repeatCount="indefinite"></animate>
  </rect>
</g><g transform="rotate(18.94736842105263 50 50)">
  <rect x="49" y="-0.5" rx="1" ry="12.5" width="2" height="25" fill="#6b717e">
    <animate attributeName="opacity" values="1;0" keyTimes="0;1" dur="0.689655172413793s" begin="-0.6170598911070779s" repeatCount="indefinite"></animate>
  </rect>
</g><g transform="rotate(37.89473684210526 50 50)">
  <rect x="49" y="-0.5" rx="1" ry="12.5" width="2" height="25" fill="#6b717e">
    <animate attributeName="opacity" values="1;0" keyTimes="0;1" dur="0.689655172413793s" begin="-0.5807622504537204s" repeatCount="indefinite"></animate>
  </rect>
</g><g transform="rotate(56.8421052631579 50 50)">
  <rect x="49" y="-0.5" rx="1" ry="12.5" width="2" height="25" fill="#6b717e">
    <animate attributeName="opacity" values="1;0" keyTimes="0;1" dur="0.689655172413793s" begin="-0.5444646098003629s" repeatCount="indefinite"></animate>
  </rect>
</g><g transform="rotate(75.78947368421052 50 50)">
  <rect x="49" y="-0.5" rx="1" ry="12.5" width="2" height="25" fill="#6b717e">
    <animate attributeName="opacity" values="1;0" keyTimes="0;1" dur="0.689655172413793s" begin="-0.5081669691470053s" repeatCount="indefinite"></animate>
  </rect>
</g><g transform="rotate(94.73684210526316 50 50)">
  <rect x="49" y="-0.5" rx="1" ry="12.5" width="2" height="25" fill="#6b717e">
    <animate attributeName="opacity" values="1;0" keyTimes="0;1" dur="0.689655172413793s" begin="-0.4718693284936478s" repeatCount="indefinite"></animate>
  </rect>
</g><g transform="rotate(113.6842105263158 50 50)">
  <rect x="49" y="-0.5" rx="1" ry="12.5" width="2" height="25" fill="#6b717e">
    <animate attributeName="opacity" values="1;0" keyTimes="0;1" dur="0.689655172413793s" begin="-0.4355716878402903s" repeatCount="indefinite"></animate>
  </rect>
</g><g transform="rotate(132.6315789473684 50 50)">
  <rect x="49" y="-0.5" rx="1" ry="12.5" width="2" height="25" fill="#6b717e">
    <animate attributeName="opacity" values="1;0" keyTimes="0;1" dur="0.689655172413793s" begin="-0.39927404718693277s" repeatCount="indefinite"></animate>
  </rect>
</g><g transform="rotate(151.57894736842104 50 50)">
  <rect x="49" y="-0.5" rx="1" ry="12.5" width="2" height="25" fill="#6b717e">
    <animate attributeName="opacity" values="1;0" keyTimes="0;1" dur="0.689655172413793s" begin="-0.36297640653357527s" repeatCount="indefinite"></animate>
  </rect>
</g><g transform="rotate(170.52631578947367 50 50)">
  <rect x="49" y="-0.5" rx="1" ry="12.5" width="2" height="25" fill="#6b717e">
    <animate attributeName="opacity" values="1;0" keyTimes="0;1" dur="0.689655172413793s" begin="-0.3266787658802177s" repeatCount="indefinite"></animate>
  </rect>
</g><g transform="rotate(189.47368421052633 50 50)">
  <rect x="49" y="-0.5" rx="1" ry="12.5" width="2" height="25" fill="#6b717e">
    <animate attributeName="opacity" values="1;0" keyTimes="0;1" dur="0.689655172413793s" begin="-0.2903811252268602s" repeatCount="indefinite"></animate>
  </rect>
</g><g transform="rotate(208.42105263157896 50 50)">
  <rect x="49" y="-0.5" rx="1" ry="12.5" width="2" height="25" fill="#6b717e">
    <animate attributeName="opacity" values="1;0" keyTimes="0;1" dur="0.689655172413793s" begin="-0.25408348457350266s" repeatCount="indefinite"></animate>
  </rect>
</g><g transform="rotate(227.3684210526316 50 50)">
  <rect x="49" y="-0.5" rx="1" ry="12.5" width="2" height="25" fill="#6b717e">
    <animate attributeName="opacity" values="1;0" keyTimes="0;1" dur="0.689655172413793s" begin="-0.21778584392014516s" repeatCount="indefinite"></animate>
  </rect>
</g><g transform="rotate(246.31578947368422 50 50)">
  <rect x="49" y="-0.5" rx="1" ry="12.5" width="2" height="25" fill="#6b717e">
    <animate attributeName="opacity" values="1;0" keyTimes="0;1" dur="0.689655172413793s" begin="-0.18148820326678763s" repeatCount="indefinite"></animate>
  </rect>
</g><g transform="rotate(265.2631578947368 50 50)">
  <rect x="49" y="-0.5" rx="1" ry="12.5" width="2" height="25" fill="#6b717e">
    <animate attributeName="opacity" values="1;0" keyTimes="0;1" dur="0.689655172413793s" begin="-0.1451905626134301s" repeatCount="indefinite"></animate>
  </rect>
</g><g transform="rotate(284.2105263157895 50 50)">
  <rect x="49" y="-0.5" rx="1" ry="12.5" width="2" height="25" fill="#6b717e">
    <animate attributeName="opacity" values="1;0" keyTimes="0;1" dur="0.689655172413793s" begin="-0.10889292196007258s" repeatCount="indefinite"></animate>
  </rect>
</g><g transform="rotate(303.1578947368421 50 50)">
  <rect x="49" y="-0.5" rx="1" ry="12.5" width="2" height="25" fill="#6b717e">
    <animate attributeName="opacity" values="1;0" keyTimes="0;1" dur="0.689655172413793s" begin="-0.07259528130671505s" repeatCount="indefinite"></animate>
  </rect>
</g><g transform="rotate(322.10526315789474 50 50)">
  <rect x="49" y="-0.5" rx="1" ry="12.5" width="2" height="25" fill="#6b717e">
    <animate attributeName="opacity" values="1;0" keyTimes="0;1" dur="0.689655172413793s" begin="-0.03629764065335753s" repeatCount="indefinite"></animate>
  </rect>
</g><g transform="rotate(341.05263157894734 50 50)">
  <rect x="49" y="-0.5" rx="1" ry="12.5" width="2" height="25" fill="#6b717e">
    <animate attributeName="opacity" values="1;0" keyTimes="0;1" dur="0.689655172413793s" begin="0s" repeatCount="indefinite"></animate>
  </rect>
</g>
<!-- [ldio] generated by https://loading.io/ --></svg>